<?xml version="1.0" encoding="utf-8"?>
<!-- Generator: Adobe Illustrator 22.1.0, SVG Export Plug-In . SVG Version: 6.00 Build 0)  -->
<svg version="1.1" id="Layer_1" xmlns="http://www.w3.org/2000/svg" xmlns:xlink="http://www.w3.org/1999/xlink" x="0px" y="0px"
	 viewBox="0 0 230 230" style="enable-background:new 0 0 230 230;" xml:space="preserve">
<style type="text/css">
	.st0{fill:#FFFFFF;}
</style>
<path class="st0" d="M32.6,126.6v77.3c0,5.4,4.4,9.8,9.8,9.8h42c5.4,0,9.8-4.4,9.8-9.8v-33.7c0-5.4,4.4-9.8,9.8-9.8h19.7
	c5.4,0,9.8,4.4,9.8,9.8v33.7c0,5.4,4.4,9.8,9.8,9.8h40.3c5.4,0,9.8-4.4,9.8-9.8v-77.4c0-2.8-1.2-5.5-3.3-7.4L121,58
	c-3.7-3.2-9.1-3.3-12.9-0.1l-72.2,61.2C33.9,121,32.6,123.7,32.6,126.6z"/>
<path class="st0" d="M120,41l82.1,72.5c1,0.9,2.4,1.4,3.7,1.4h6.9c5.2,0,7.6-6.4,3.8-9.8l-96.4-87.3c-2.1-1.9-5.4-2-7.5,0l-99,87.3
	c-3.9,3.4-1.5,9.9,3.7,9.9h6c1.3,0,2.6-0.5,3.7-1.3L112.7,41C114.7,39.1,117.9,39.1,120,41z"/>
<path class="st0" d="M178.3,44v17.4c0,2.1,0.9,4.1,2.5,5.4l7.7,6.3c4.5,3.7,11.4,0.5,11.4-5.4V44c0-3.8-3.1-7-7-7h-7.6
	C181.4,37.1,178.3,40.2,178.3,44z"/>
</svg>
