<?xml version="1.0" encoding="utf-8"?>
<!-- Generator: Adobe Illustrator 22.1.0, SVG Export Plug-In . SVG Version: 6.00 Build 0)  -->
<svg version="1.1" id="Layer_1" xmlns="http://www.w3.org/2000/svg" xmlns:xlink="http://www.w3.org/1999/xlink" x="0px" y="0px"
	 viewBox="0 0 1000 1000" style="enable-background:new 0 0 1000 1000;" xml:space="preserve">
<style type="text/css">
	.st0{fill:#FFFFFF;}
</style>
<g id="music">
	<path class="st0" d="M557.8,488.5h28l0,0c28.1,28.4,28.1,74.1,0,102.5l0,0h-28c-4.8,0-8.6-3.9-8.6-8.6v-85.3
		C549.2,492.3,553,488.5,557.8,488.5z"/>
	<path class="st0" d="M441.7,488.5h-28l0,0c-28.1,28.4-28.1,74.1,0,102.5l0,0h28c4.8,0,8.6-3.9,8.6-8.6v-85.3
		C450.3,492.3,446.4,488.5,441.7,488.5z"/>
	<path class="st0" d="M429.4,462c-0.3,0.5-0.6,1-0.8,1.5c-3.7,6.8-0.1,16.3,6.1,16.3l0,0c2.4,0,4.6-1.5,6.1-4
		c23.5-40.9,59-40.2,59-40.2s35.5-0.7,59,40.2c1.5,2.5,3.7,4,6.1,4l0,0c6.3,0,9.8-9.6,6.1-16.3c-0.3-0.5-0.6-1-0.8-1.5
		C535.9,402,463.5,402,429.4,462z"/>
</g>
</svg>
