<?xml version="1.0" encoding="utf-8"?>
<!-- Generator: Adobe Illustrator 22.0.1, SVG Export Plug-In . SVG Version: 6.00 Build 0)  -->
<svg version="1.1" id="Layer_1" xmlns="http://www.w3.org/2000/svg" xmlns:xlink="http://www.w3.org/1999/xlink" x="0px" y="0px"
	 viewBox="0 0 228 228" style="enable-background:new 0 0 228 228;" xml:space="preserve">
<style type="text/css">
	.st0{fill:#FFFFFF;}
</style>
<g id="music">
	<path class="st0" d="M172.7,103.4h28l0,0c28.1,28.4,28.1,74.1,0,102.5l0,0h-28c-4.8,0-8.6-3.9-8.6-8.6V112
		C164.1,107.2,167.9,103.4,172.7,103.4z"/>
	<path class="st0" d="M56.6,103.4h-28l0,0c-28.1,28.4-28.1,74.1,0,102.5l0,0h28c4.8,0,8.6-3.9,8.6-8.6V112
		C65.2,107.2,61.3,103.4,56.6,103.4z"/>
	<path class="st0" d="M44.3,76.9c-0.3,0.5-0.6,1-0.8,1.5c-3.7,6.8-0.1,16.3,6.1,16.3l0,0c2.4,0,4.6-1.5,6.1-4
		c23.5-40.9,59-40.2,59-40.2s35.5-0.7,59,40.2c1.5,2.5,3.7,4,6.1,4l0,0c6.3,0,9.8-9.6,6.1-16.3c-0.3-0.5-0.6-1-0.8-1.5
		C150.8,16.9,78.4,16.9,44.3,76.9z"/>
</g>
</svg>
