<?xml version="1.0" encoding="utf-8"?>
<!-- Generator: Adobe Illustrator 22.1.0, SVG Export Plug-In . SVG Version: 6.00 Build 0)  -->
<svg version="1.1" id="Layer_1" xmlns="http://www.w3.org/2000/svg" xmlns:xlink="http://www.w3.org/1999/xlink" x="0px" y="0px"
	 viewBox="0 0 1000 1000" style="enable-background:new 0 0 1000 1000;" xml:space="preserve">
<style type="text/css">
	.st0{fill:#FFFFFF;}
	.st1{fill:none;stroke:#FFFFFF;stroke-width:8;stroke-miterlimit:10;}
</style>
<g id="pop_x5F_culture">
	<path class="st0" d="M632.2,481.7c0,0,1.3-39.8-73.1-39.8h-59.8v-0.1h-59.8c-74.5,0-73.1,39.8-73.1,39.8l-7.2,4.2V502l6.9,6.2
		c1.7,16.3,10,56.7,56.5,56.2c46.4-0.4,61.2-43.3,65.9-55.3c4.7-12,10.9-9.4,10.9-9.4v0.1c0,0,6.2-2.6,10.9,9.4s19.4,54.9,65.9,55.3
		c46.4,0.4,54.7-39.9,56.5-56.2l6.9-6.2v-16.3L632.2,481.7z M486.8,490.2c-17.7,53.9-49.3,63.5-70.3,63.9s-48.4-19.9-39.9-63.9
		c6.4-33,39.9-35.6,39.9-35.6S504.7,435.6,486.8,490.2z M582,554.5c-21-0.4-52.7-9.9-70.3-63.9C493.9,436,582,455.1,582,455.1
		s33.4,2.6,39.9,35.6C630.5,534.6,603,555,582,554.5z"/>
	<line class="st1" x1="383.6" y1="460" x2="613.8" y2="460"/>
	<line class="st1" x1="374" y1="482" x2="625.9" y2="482"/>
	<line class="st1" x1="516" y1="504" x2="634.2" y2="504"/>
	<line class="st1" x1="520.4" y1="526.1" x2="623.5" y2="526.1"/>
	<line class="st1" x1="538.4" y1="548.1" x2="609.8" y2="548.1"/>
	<line class="st1" x1="370.9" y1="504" x2="489.2" y2="504"/>
	<line class="st1" x1="375.3" y1="526.1" x2="478.5" y2="526.1"/>
	<line class="st1" x1="388.3" y1="548.1" x2="458.9" y2="548.1"/>
</g>
</svg>
