<?xml version="1.0" encoding="utf-8"?>
<!-- Generator: Adobe Illustrator 22.0.1, SVG Export Plug-In . SVG Version: 6.00 Build 0)  -->
<svg version="1.1" id="Layer_1" xmlns="http://www.w3.org/2000/svg" xmlns:xlink="http://www.w3.org/1999/xlink" x="0px" y="0px"
	 viewBox="0 0 291 291" style="enable-background:new 0 0 291 291;" xml:space="preserve">
<style type="text/css">
	.st0{fill:#FFFFFF;}
	.st1{fill:none;stroke:#FFFFFF;stroke-width:8;stroke-miterlimit:10;}
</style>
<g id="pop_x5F_culture">
	<path class="st0" d="M278.2,127.7c0,0,1.3-39.8-73.1-39.8h-59.8v-0.1H85.5c-74.5,0-73.1,39.8-73.1,39.8l-7.2,4.2V148l6.9,6.2
		c1.7,16.3,10,56.7,56.5,56.2c46.4-0.4,61.2-43.3,65.9-55.3c4.7-12,10.9-9.4,10.9-9.4v0.1c0,0,6.2-2.6,10.9,9.4
		c4.7,12,19.4,54.9,65.9,55.3c46.4,0.4,54.7-39.9,56.5-56.2l6.9-6.2v-16.3L278.2,127.7z M132.8,136.2
		c-17.7,53.9-49.3,63.5-70.3,63.9s-48.4-19.9-39.9-63.9c6.4-33,39.9-35.6,39.9-35.6S150.7,81.6,132.8,136.2z M228,200.5
		c-21-0.4-52.7-9.9-70.3-63.9C139.9,82,228,101.1,228,101.1s33.4,2.6,39.9,35.6C276.5,180.6,249,201,228,200.5z"/>
	<line class="st1" x1="29.6" y1="106" x2="259.8" y2="106"/>
	<line class="st1" x1="20" y1="128" x2="271.9" y2="128"/>
	<line class="st1" x1="162" y1="150" x2="280.2" y2="150"/>
	<line class="st1" x1="166.4" y1="172.1" x2="269.5" y2="172.1"/>
	<line class="st1" x1="184.4" y1="194.1" x2="255.8" y2="194.1"/>
	<line class="st1" x1="16.9" y1="150" x2="135.2" y2="150"/>
	<line class="st1" x1="21.3" y1="172.1" x2="124.5" y2="172.1"/>
	<line class="st1" x1="34.3" y1="194.1" x2="104.9" y2="194.1"/>
</g>
</svg>
