<svg id="mute" xmlns="http://www.w3.org/2000/svg" viewBox="0 0 316 252.54"><defs><style>.cls-1,.cls-2,.cls-3{fill:#fff;}.cls-2,.cls-3{stroke:#fff;stroke-miterlimit:10;}.cls-2{stroke-width:10px;}</style></defs><title>mute</title><g id="speaker"><rect id="square" class="cls-1" y="76.27" width="100" height="100" rx="9" ry="9"/><path id="triangle" class="cls-1" d="M120.93,292.05l157.56,122.4a3.86,3.86,0,0,0,6.23-3.05V166.6a3.86,3.86,0,0,0-6.23-3L120.93,286A3.86,3.86,0,0,0,120.93,292.05Z" transform="translate(-117 -162.73)"/></g><g id="volume_line_L"><path id="sound_line" class="cls-2" d="M324.5,392.5a103.5,103.5,0,0,0,0-207" transform="translate(-117 -162.73)"/><circle id="line_end" class="cls-3" cx="207.5" cy="22.77" r="5"/><circle id="line_end-2" data-name="line_end" class="cls-3" cx="207.5" cy="229.77" r="5"/></g><g id="volume_line_S"><path id="sound_line-2" data-name="sound_line" class="cls-2" d="M326.58,354.5a65.5,65.5,0,0,0,0-131" transform="translate(-117 -162.73)"/><circle id="line_end-3" data-name="line_end" class="cls-3" cx="209.58" cy="60.77" r="5"/><circle id="line_end-4" data-name="line_end" class="cls-3" cx="209.58" cy="191.77" r="4.98"/></g></svg>