<?xml version="1.0" encoding="utf-8"?>
<!-- Generator: Adobe Illustrator 22.1.0, SVG Export Plug-In . SVG Version: 6.00 Build 0)  -->
<svg version="1.1" id="Layer_1" xmlns="http://www.w3.org/2000/svg" xmlns:xlink="http://www.w3.org/1999/xlink" x="0px" y="0px"
	 viewBox="0 0 515 86.5" style="enable-background:new 0 0 515 86.5;" xml:space="preserve">
<style type="text/css">
	.st0{stroke:#000000;stroke-miterlimit:10;}
	.st1{fill:none;stroke:#FFFFFF;stroke-width:1.8;}
	.st2{fill:#FFFFFF;stroke:#FFFFFF;stroke-miterlimit:10;}
	.st3{fill:none;stroke:#000000;stroke-width:5.5;stroke-linejoin:round;stroke-miterlimit:10;}
</style>
<rect x="1.3" y="1.1" class="st0" width="516" height="88"/>
<g>
	<path class="st1" d="M23.2,19.6h23.6c5.1,0,9,1.2,11.5,3.7c2.6,2.4,3.8,5.9,3.8,10.4c0,4.6-1.4,8.3-4.2,10.9s-7,3.9-12.8,3.9h-7.8
		v17H23V19.6H23.2z M37.4,39.2h3.5c2.7,0,4.7-0.5,5.8-1.4s1.7-2.2,1.7-3.6s-0.5-2.7-1.4-3.7c-1-1-2.8-1.5-5.4-1.5h-4v10.2H37.4z"/>
	<path class="st1" d="M99.3,19.6h14.2V47c0,2.7-0.4,5.3-1.3,7.7s-2.2,4.5-4,6.3s-3.7,3.1-5.7,3.8c-2.8,1-6.1,1.5-9.9,1.5
		c-2.2,0-4.7-0.2-7.3-0.5s-4.9-0.9-6.6-1.9c-1.8-0.9-3.4-2.2-4.9-4s-2.5-3.5-3-5.3c-0.9-2.9-1.3-5.5-1.3-7.8V19.4h14.2v28
		c0,2.5,0.7,4.5,2.1,5.9s3.3,2.1,5.8,2.1c2.4,0,4.4-0.7,5.7-2.1c1.4-1.4,2.1-3.4,2.1-5.9L99.3,19.6L99.3,19.6z"/>
	<path class="st1" d="M122.9,65.5V19.6h23.6c4.4,0,7.7,0.4,10.1,1.1c2.3,0.8,4.2,2.1,5.6,4.2c1.4,2,2.1,4.5,2.1,7.4
		c0,2.5-0.5,4.7-1.6,6.6c-1.1,1.8-2.6,3.3-4.5,4.5c-1.2,0.7-2.9,1.3-5,1.8c1.7,0.6,2.9,1.1,3.7,1.7c0.5,0.4,1.3,1.2,2.3,2.4
		s1.7,2.2,2,2.9l6.9,13.3h-16l-7.6-14c-1-1.8-1.8-3-2.6-3.5c-1-0.7-2.2-1.1-3.5-1.1h-1.3v18.6C137.1,65.5,122.9,65.5,122.9,65.5z
		 M137.2,38.2h6c0.6,0,1.9-0.2,3.8-0.6c0.9-0.2,1.7-0.7,2.3-1.4s0.9-1.7,0.9-2.7c0-1.5-0.5-2.6-1.4-3.4s-2.7-1.2-5.3-1.2h-6.2
		L137.2,38.2L137.2,38.2z"/>
	<path class="st1" d="M172.5,19.6h38v9.8h-36.8v7.3h35.1v9.4h-22.1v9.1h24.5v10.4h-38.7V19.6z"/>
</g>
<g>
	<path class="st2" d="M206,19.2h14.7l10.2,33.3L241,19.2h14.2l-16.9,46.2h-15.2L206,19.2z"/>
	<path class="st2" d="M254.2,42.3c0-7.5,2.1-13.4,6.2-17.6s9.9-6.3,17.3-6.3c7.6,0,13.4,2.1,17.5,6.2s6.1,9.9,6.1,17.4
		c0,5.4-0.9,9.8-2.7,13.3c-1.8,3.5-4.4,6.2-7.7,8.1c-3.4,1.9-7.6,2.9-12.6,2.9c-5.1,0-9.4-0.8-12.7-2.5c-3.4-1.7-6.1-4.3-8.2-7.9
		C255.3,52.2,254.2,47.7,254.2,42.3z M268.2,42.4c0,4.7,0.9,8,2.6,10.1s4,3.1,7,3.1s5.3-1,7-3s2.5-5.6,2.5-10.8
		c0-4.4-0.9-7.5-2.6-9.5s-4-0.6-7-0.6c-2.8,0-5.1-1.4-6.8,0.7C269.1,34.3,268.2,37.7,268.2,42.4z"/>
	<path class="st2" d="M307.2,19.2h14V54h21.9v11.4h-35.9V19.2z"/>
	<path class="st2" d="M375.7,19.2h14v27.5c0,2.7-0.4,5.3-1.3,7.7s-2.1,4.5-3.9,6.4s-3.7,3.1-5.6,3.8c-2.7,1-6,1.5-9.8,1.5
		c-2.2,0-4.6-0.2-7.2-0.5s-4.8-0.9-6.6-1.9c-1.8-0.9-3.4-2.3-4.8-4c-1.5-1.7-2.5-3.5-3-5.3c-0.9-2.9-1.3-5.5-1.3-7.8V19.1h14v28.2
		c0,2.5,0.7,4.5,2.1,5.9s3.3,2.1,5.7,2.1c2.4,0,4.3-0.7,5.7-2.1c1.4-1.4,2.1-3.4,2.1-5.9V19.2H375.7z"/>
	<path class="st2" d="M397.2,19.2h18.5l7.1,28.1l7.1-28.1h18.4v46.2h-11.5V40.1l-8.9,25.3h-10.4l-8.8-25.3v25.3h-11.5L397.2,19.2
		L397.2,19.2z"/>
	<path class="st2" d="M455.6,19.2h37.6v9.9h-23.5l-0.1,6.5h21.8l0.1,10.2h-21.8v9.1h24.2v10.5h-38.3L455.6,19.2L455.6,19.2z"/>
</g>
<polyline class="st3" points="169.8,33.1 412.9,33 422.8,60.5 438.4,12.2 442.3,32.4 474.2,32.4 "/>
</svg>
