<svg id="mute" xmlns="http://www.w3.org/2000/svg" viewBox="0 0 338.42 252.54"><defs><style>.cls-1{fill:#fff;}</style></defs><title>unmute</title><g id="speaker"><rect id="square" class="cls-1" y="76.27" width="100" height="100" rx="9" ry="9"/><path id="triangle" class="cls-1" d="M120.93,292.05l157.56,122.4a3.86,3.86,0,0,0,6.23-3.05V166.6a3.86,3.86,0,0,0-6.23-3L120.93,286A3.86,3.86,0,0,0,120.93,292.05Z" transform="translate(-117 -162.73)"/></g><g id="x"><g id="line_L"><line class="cls-1" x1="215.81" y1="53.27" x2="333.69" y2="199.27"/><path class="cls-1" d="M329.28,219.54l39.81,49.31,63.47,78.62,14.59,18.07c4,5,11.08-2.11,7.07-7.08l-39.81-49.31-63.47-78.62-14.59-18.07c-4-5-11.08,2.11-7.07,7.08Z" transform="translate(-117 -162.73)"/></g><g id="line_R"><line class="cls-1" x1="333.69" y1="53.27" x2="215.81" y2="199.27"/><path class="cls-1" d="M447.15,212.46l-39.81,49.32L343.87,340.4l-14.59,18.06c-4,5,3,12.09,7.07,7.08l39.81-49.32,63.47-78.62,14.59-18.06c4-5-3-12.09-7.07-7.08Z" transform="translate(-117 -162.73)"/></g></g></svg>