<?xml version="1.0" encoding="utf-8"?>
<!-- Generator: Adobe Illustrator 22.0.1, SVG Export Plug-In . SVG Version: 6.00 Build 0)  -->
<svg version="1.1" id="Layer_1" xmlns="http://www.w3.org/2000/svg" xmlns:xlink="http://www.w3.org/1999/xlink" x="0px" y="0px"
	 viewBox="0 0 213 213" style="enable-background:new 0 0 213 213;" xml:space="preserve">
<style type="text/css">
	.st0{fill:#FFFFFF;}
</style>
<g id="lifestyle">
	<path class="st0" d="M26.1,58.3h109.5l21.2-48c1-2.4,4-4.3,6.6-4.3h27.2c3.5,0,6.3,2.8,6.3,6.3l0,0c0,4.5-3.6,8.1-8.1,8.1h-14.5
		c-3.3,0-6.2,1.9-7.6,4.9l-15.3,33h18.9l0,0c1.7,4.7,0.5,9.9-2.9,13.5l-62.8,64.9v47.8c0,5.5,4.4,9.9,9.9,9.9h16.2
		c3.5,0,6.3,2.8,6.3,6.3l0,0c0,3.5-2.8,6.3-6.3,6.3H68c-3.5,0-6.3-2.8-6.3-6.3v-0.5c0-3.5,2.8-6.3,6.3-6.3h13
		c6.5,0,11.8-5.3,11.8-11.8v-45.4L29.1,73C25.3,69.1,24.1,63.3,26.1,58.3L26.1,58.3z"/>
	<path class="st0" d="M88.3,49.2h35.8v-2.1c0-9.9-8-17.9-17.9-17.9l0,0c-9.9,0-17.9,8-17.9,17.9V49.2z"/>
</g>
</svg>
