<?xml version="1.0" encoding="utf-8"?>
<!-- Generator: Adobe Illustrator 22.0.1, SVG Export Plug-In . SVG Version: 6.00 Build 0)  -->
<svg version="1.1" id="Layer_1" xmlns="http://www.w3.org/2000/svg" xmlns:xlink="http://www.w3.org/1999/xlink" x="0px" y="0px"
	 viewBox="0 0 792 612" style="enable-background:new 0 0 792 612;" xml:space="preserve">
<style type="text/css">
	.st0{stroke:#FFFFFF;stroke-miterlimit:10;}
	.st1{fill:none;stroke:#FFFFFF;stroke-width:1.8;}
	.st2{fill:#FFFFFF;stroke:#FFFFFF;stroke-miterlimit:10;}
</style>
<rect x="130" y="262.5" class="st0" width="516" height="88"/>
<g>
	<path class="st1" d="M153.2,282.6h23.6c5.1,0,9,1.2,11.5,3.7c2.6,2.4,3.8,5.9,3.8,10.4c0,4.6-1.4,8.3-4.2,10.9
		c-2.8,2.6-7,3.9-12.8,3.9h-7.8v17h-14.3V282.6z M167.4,302.2h3.5c2.7,0,4.7-0.5,5.8-1.4s1.7-2.2,1.7-3.6c0-1.4-0.5-2.7-1.4-3.7
		c-1-1-2.8-1.5-5.4-1.5h-4V302.2z"/>
	<path class="st1" d="M229.3,282.6h14.2V310c0,2.7-0.4,5.3-1.3,7.7s-2.2,4.5-4,6.3c-1.8,1.8-3.7,3.1-5.7,3.8c-2.8,1-6.1,1.5-9.9,1.5
		c-2.2,0-4.7-0.2-7.3-0.5c-2.6-0.3-4.9-0.9-6.6-1.9c-1.8-0.9-3.4-2.2-4.9-4s-2.5-3.5-3-5.3c-0.9-2.9-1.3-5.5-1.3-7.8v-27.4h14.2v28
		c0,2.5,0.7,4.5,2.1,5.9c1.4,1.4,3.3,2.1,5.8,2.1c2.4,0,4.4-0.7,5.7-2.1c1.4-1.4,2.1-3.4,2.1-5.9V282.6z"/>
	<path class="st1" d="M252.9,328.5v-45.9h23.6c4.4,0,7.7,0.4,10.1,1.1c2.3,0.8,4.2,2.1,5.6,4.2c1.4,2,2.1,4.5,2.1,7.4
		c0,2.5-0.5,4.7-1.6,6.6c-1.1,1.8-2.6,3.3-4.5,4.5c-1.2,0.7-2.9,1.3-5,1.8c1.7,0.6,2.9,1.1,3.7,1.7c0.5,0.4,1.3,1.2,2.3,2.4
		c1,1.2,1.7,2.2,2,2.9l6.9,13.3h-16l-7.6-14c-1-1.8-1.8-3-2.6-3.5c-1-0.7-2.2-1.1-3.5-1.1h-1.3v18.6H252.9z M267.2,301.2h6
		c0.6,0,1.9-0.2,3.8-0.6c0.9-0.2,1.7-0.7,2.3-1.4s0.9-1.7,0.9-2.7c0-1.5-0.5-2.6-1.4-3.4c-0.9-0.8-2.7-1.2-5.3-1.2h-6.2V301.2z"/>
	<path class="st1" d="M302.5,282.6h38v9.8h-23.8v7.3h22.1v9.4h-22.1v9.1h24.5v10.4h-38.7V282.6z"/>
</g>
<g>
	<path class="st2" d="M336,282.2h14.7l10.2,33.3l10.1-33.3h14.2l-16.9,46.2h-15.2L336,282.2z"/>
	<path class="st2" d="M384.2,305.3c0-7.5,2.1-13.4,6.2-17.6c4.1-4.2,9.9-6.3,17.3-6.3c7.6,0,13.4,2.1,17.5,6.2
		c4.1,4.1,6.1,9.9,6.1,17.4c0,5.4-0.9,9.8-2.7,13.3c-1.8,3.5-4.4,6.2-7.7,8.1c-3.4,1.9-7.6,2.9-12.6,2.9c-5.1,0-9.4-0.8-12.7-2.5
		c-3.4-1.7-6.1-4.3-8.2-7.9C385.3,315.2,384.2,310.7,384.2,305.3z M398.2,305.4c0,4.7,0.9,8,2.6,10.1s4,3.1,7,3.1c3,0,5.3-1,7-3
		c1.7-2,2.5-5.6,2.5-10.8c0-4.4-0.9-7.5-2.6-9.5c-1.7-2-4.1-3-7-3c-2.8,0-5.1,1-6.8,3.1C399.1,297.3,398.2,300.7,398.2,305.4z"/>
	<path class="st2" d="M437.2,282.2h14V317h21.9v11.4h-35.9V282.2z"/>
	<path class="st2" d="M505.7,282.2h14v27.5c0,2.7-0.4,5.3-1.3,7.7s-2.1,4.5-3.9,6.4s-3.7,3.1-5.6,3.8c-2.7,1-6,1.5-9.8,1.5
		c-2.2,0-4.6-0.2-7.2-0.5c-2.6-0.3-4.8-0.9-6.6-1.9c-1.8-0.9-3.4-2.3-4.8-4c-1.5-1.7-2.5-3.5-3-5.3c-0.9-2.9-1.3-5.5-1.3-7.8v-27.5
		h14v28.2c0,2.5,0.7,4.5,2.1,5.9c1.4,1.4,3.3,2.1,5.7,2.1c2.4,0,4.3-0.7,5.7-2.1c1.4-1.4,2.1-3.4,2.1-5.9V282.2z"/>
	<path class="st2" d="M527.2,282.2h18.5l7.1,28.1l7.1-28.1h18.4v46.2h-11.5v-35.3l-8.9,35.3h-10.4l-8.8-35.3v35.3h-11.5V282.2z"/>
	<path class="st2" d="M585.6,282.2h37.6v9.9h-23.5v7.3h21.8v9.4h-21.8v9.1h24.2v10.5h-38.3V282.2z"/>
</g>
<g id="path">
	<g>
		<path d="M338.7,291h201.5c1.9,0,3.6,1.2,4.3,3l8.4,23c0,0,0.1,0,0.1,0l13.4-39.3c0,0,0,0,0,0l3.2-0.8c0,0,0,0,0,0l0.6,2.7
			c0,0,0,0,0,0l-1.7,0.4c0,0,0,0,0,0l-13.2,38.8c-0.4,1-1.3,1.7-2.4,1.7l0,0c-1.1,0-2.1-0.7-2.4-1.7l-8.7-24
			c-0.2-0.7-0.9-1.1-1.6-1.1H339.5"/>
	</g>
	<polygon points="635.1,304.9 571.8,304.9 569.4,278.1 572.3,277.9 574.4,302 635.1,302 	"/>
</g>
</svg>
